
<svg xmlns="http://www.w3.org/2000/svg" width="16" height="16" fill="#0087ff" viewBox="0 0 16 16">
    <svg xmlns="http://www.w3.org/2000/svg" width="16" height="16" fill="#0087ff" viewBox="0 0 16 16">
        <path d="M11.251.068a.5.5 0 0 1 .227.58L9.677 6.5H13a.5.5 0 0 1 .364.843l-8 8.5a.5.5 0 0 1-.842-.49L6.323 9.5H3a.5.5 0 0 1-.364-.843l8-8.5a.5.5 0 0 1 .615-.09z">
        </path>
    </svg>

    <svg xmlns="http://www.w3.org/2000/svg" viewBox="0 10.199999809265137 225.5500030517578 47.54999923706055" data-asc="0.935" width="225.5500030517578" height="47.54999923706055">
        <defs/>
        <g>
            <g>
                <g transform="translate(0, 0)">
                    <path d="M1.25 46.75Q0.70 46.75 0.35 46.40Q0 46.05 0 45.50L0 13Q0 12.45 0.35 12.10Q0.70 11.75 1.25 11.75L5.80 11.75Q6.55 11.75 6.90 12.10Q7.25 12.45 7.35 12.65L20.70 33.50L20.70 13Q20.70 12.45 21.05 12.10Q21.40 11.75 21.90 11.75L27.00 11.75Q27.55 11.75 27.90 12.10Q28.25 12.45 28.25 13L28.25 45.50Q28.25 46 27.90 46.38Q27.55 46.75 27.00 46.75L22.40 46.75Q21.65 46.75 21.33 46.38Q21.00 46 20.85 45.85L7.55 25.65L7.55 45.50Q7.55 46.05 7.20 46.40Q6.85 46.75 6.30 46.75L1.25 46.75ZM46.70 47.25Q40.95 47.25 37.58 44.05Q34.20 40.85 34 34.75Q34 34.35 34 33.67Q34 33 34 32.60Q34.20 28.75 35.75 25.97Q37.30 23.20 40.10 21.72Q42.90 20.25 46.65 20.25Q50.85 20.25 53.67 21.97Q56.50 23.70 57.92 26.67Q59.35 29.65 59.35 33.50L59.35 34.65Q59.35 35.15 58.98 35.50Q58.60 35.85 58.10 35.85L41.75 35.85Q41.75 35.90 41.75 36.02Q41.75 36.15 41.75 36.25Q41.80 37.85 42.38 39.17Q42.95 40.50 44.02 41.30Q45.10 42.10 46.60 42.10Q47.85 42.10 48.65 41.75Q49.45 41.40 49.98 40.90Q50.50 40.40 50.75 40.05Q51.20 39.55 51.48 39.42Q51.75 39.30 52.35 39.30L57.55 39.30Q58.05 39.30 58.38 39.58Q58.70 39.85 58.65 40.35Q58.60 41.15 57.83 42.33Q57.05 43.50 55.55 44.63Q54.05 45.75 51.83 46.50Q49.60 47.25 46.70 47.25M41.75 31.30L51.55 31.30L51.55 31.20Q51.55 29.40 50.98 28.07Q50.40 26.75 49.30 26Q48.20 25.25 46.65 25.25Q45.10 25.25 44 26Q42.90 26.75 42.33 28.07Q41.75 29.40 41.75 31.20L41.75 31.30ZM76.85 46.75Q73.75 46.75 71.55 45.73Q69.35 44.70 68.23 42.55Q67.10 40.40 67.10 37.15L67.10 26.65L63.20 26.65Q62.65 26.65 62.30 26.30Q61.95 25.95 61.95 25.40L61.95 22Q61.95 21.45 62.30 21.10Q62.65 20.75 63.20 20.75L67.10 20.75L67.10 12.50Q67.10 11.95 67.48 11.60Q67.85 11.25 68.35 11.25L73.25 11.25Q73.80 11.25 74.15 11.60Q74.50 11.95 74.50 12.50L74.50 20.75L80.75 20.75Q81.25 20.75 81.60 21.10Q81.95 21.45 81.95 22L81.95 25.40Q81.95 25.95 81.60 26.30Q81.25 26.65 80.75 26.65L74.50 26.65L74.50 36.55Q74.50 38.45 75.18 39.52Q75.85 40.60 77.55 40.60L81.20 40.60Q81.70 40.60 82.05 40.95Q82.40 41.30 82.40 41.80L82.40 45.50Q82.40 46.05 82.05 46.40Q81.70 46.75 81.20 46.75L76.85 46.75ZM88.55 46.75Q88.00 46.75 87.65 46.40Q87.30 46.05 87.30 45.50L87.30 13Q87.30 12.45 87.65 12.10Q88.00 11.75 88.55 11.75L94.20 11.75Q94.75 11.75 95.10 12.10Q95.45 12.45 95.45 13L95.45 45.50Q95.45 46.05 95.10 46.40Q94.75 46.75 94.20 46.75L88.55 46.75ZM114.50 57.75Q110.80 57.75 108.35 56.77Q105.90 55.80 104.48 54.42Q103.05 53.05 102.45 51.70Q101.85 50.35 101.80 49.60Q101.75 49.05 102.15 48.70Q102.55 48.35 103.05 48.35L108.40 48.35Q108.85 48.35 109.18 48.58Q109.50 48.80 109.70 49.35Q109.95 49.95 110.40 50.63Q110.85 51.30 111.78 51.75Q112.70 52.20 114.25 52.20Q116 52.20 117.15 51.70Q118.30 51.20 118.88 50Q119.45 48.80 119.45 46.75L119.45 43.40Q118.25 44.70 116.43 45.55Q114.60 46.40 111.95 46.40Q109.35 46.40 107.38 45.58Q105.40 44.75 104.10 43.23Q102.80 41.70 102.10 39.55Q101.40 37.40 101.30 34.70Q101.25 33.35 101.30 32.05Q101.40 29.45 102.10 27.30Q102.80 25.15 104.10 23.57Q105.40 22 107.38 21.13Q109.35 20.25 111.95 20.25Q114.70 20.25 116.65 21.30Q118.60 22.35 119.85 23.90L119.85 22Q119.85 21.50 120.20 21.13Q120.55 20.75 121.05 20.75L125.95 20.75Q126.45 20.75 126.83 21.13Q127.20 21.50 127.20 22L127.25 46.05Q127.25 49.80 125.80 52.40Q124.35 55 121.53 56.38Q118.70 57.75 114.50 57.75M114.25 40.55Q116.05 40.55 117.18 39.73Q118.30 38.90 118.85 37.63Q119.40 36.35 119.45 34.95Q119.50 34.40 119.50 33.38Q119.50 32.35 119.45 31.80Q119.40 30.40 118.85 29.13Q118.30 27.85 117.18 27.05Q116.05 26.25 114.25 26.25Q112.35 26.25 111.25 27.07Q110.15 27.90 109.65 29.25Q109.15 30.60 109.05 32.20Q109 33.40 109.05 34.55Q109.15 36.20 109.65 37.55Q110.15 38.90 111.25 39.73Q112.35 40.55 114.25 40.55ZM134.75 46.75Q134.25 46.75 133.90 46.40Q133.55 46.05 133.55 45.50L133.55 22Q133.55 21.45 133.90 21.10Q134.25 20.75 134.75 20.75L139.65 20.75Q140.20 20.75 140.55 21.10Q140.90 21.45 140.90 22L140.90 23.95Q142.20 22.35 144.25 21.30Q146.30 20.25 149.25 20.25Q152.20 20.25 154.43 21.57Q156.65 22.90 157.93 25.42Q159.20 27.95 159.20 31.55L159.20 45.50Q159.20 46.05 158.83 46.40Q158.45 46.75 157.95 46.75L152.65 46.75Q152.10 46.75 151.75 46.40Q151.40 46.05 151.40 45.50L151.40 31.85Q151.40 29.20 150.13 27.72Q148.85 26.25 146.40 26.25Q144.05 26.25 142.65 27.72Q141.25 29.20 141.25 31.85L141.25 45.50Q141.25 46.05 140.90 46.40Q140.55 46.75 140.05 46.75L134.75 46.75ZM166.40 46.75Q165.90 46.75 165.55 46.40Q165.20 46.05 165.20 45.50L165.20 22Q165.20 21.45 165.55 21.10Q165.90 20.75 166.40 20.75L171.40 20.75Q171.95 20.75 172.30 21.10Q172.65 21.45 172.65 22L172.65 45.50Q172.65 46.05 172.30 46.40Q171.95 46.75 171.40 46.75L166.40 46.75M166.25 16.75Q165.75 16.75 165.40 16.40Q165.05 16.05 165.05 15.50L165.05 11.50Q165.05 10.95 165.40 10.57Q165.75 10.20 166.25 10.20L171.50 10.20Q172.05 10.20 172.43 10.57Q172.80 10.95 172.80 11.50L172.80 15.50Q172.80 16.05 172.43 16.40Q172.05 16.75 171.50 16.75L166.25 16.75ZM191.40 46.75Q188.30 46.75 186.10 45.73Q183.90 44.70 182.78 42.55Q181.65 40.40 181.65 37.15L181.65 26.65L177.75 26.65Q177.20 26.65 176.85 26.30Q176.50 25.95 176.50 25.40L176.50 22Q176.50 21.45 176.85 21.10Q177.20 20.75 177.75 20.75L181.65 20.75L181.65 12.50Q181.65 11.95 182.03 11.60Q182.40 11.25 182.90 11.25L187.80 11.25Q188.35 11.25 188.70 11.60Q189.05 11.95 189.05 12.50L189.05 20.75L195.30 20.75Q195.80 20.75 196.15 21.10Q196.50 21.45 196.50 22L196.50 25.40Q196.50 25.95 196.15 26.30Q195.80 26.65 195.30 26.65L189.05 26.65L189.05 36.55Q189.05 38.45 189.72 39.52Q190.40 40.60 192.10 40.60L195.75 40.60Q196.25 40.60 196.60 40.95Q196.95 41.30 196.95 41.80L196.95 45.50Q196.95 46.05 196.60 46.40Q196.25 46.75 195.75 46.75L191.40 46.75ZM212.90 47.25Q207.15 47.25 203.78 44.05Q200.40 40.85 200.20 34.75Q200.20 34.35 200.20 33.67Q200.20 33 200.20 32.60Q200.40 28.75 201.95 25.97Q203.50 23.20 206.30 21.72Q209.10 20.25 212.85 20.25Q217.05 20.25 219.88 21.97Q222.70 23.70 224.13 26.67Q225.55 29.65 225.55 33.50L225.55 34.65Q225.55 35.15 225.18 35.50Q224.80 35.85 224.30 35.85L207.95 35.85Q207.95 35.90 207.95 36.02Q207.95 36.15 207.95 36.25Q208 37.85 208.58 39.17Q209.15 40.50 210.22 41.30Q211.30 42.10 212.80 42.10Q214.05 42.10 214.85 41.75Q215.65 41.40 216.18 40.90Q216.70 40.40 216.95 40.05Q217.40 39.55 217.68 39.42Q217.95 39.30 218.55 39.30L223.75 39.30Q224.25 39.30 224.58 39.58Q224.90 39.85 224.85 40.35Q224.80 41.15 224.03 42.33Q223.25 43.50 221.75 44.63Q220.25 45.75 218.03 46.50Q215.80 47.25 212.90 47.25M207.95 31.30L217.75 31.30L217.75 31.20Q217.75 29.40 217.18 28.07Q216.60 26.75 215.50 26Q214.40 25.25 212.85 25.25Q211.30 25.25 210.20 26Q209.10 26.75 208.53 28.07Q207.95 29.40 207.95 31.20L207.95 31.30Z"/>
                </g>
            </g>
        </g>
    </svg>

</svg>


